# This file uses centimeters as units for non-parametric coordinates.

mtllib BillNye_Tie1.mtl
g default
v -0.871749 -0.168274 -0.423818
v -4.881887 -1.932785 0.088192
v -4.881875 1.502136 -1.188961
v -0.871749 0.168198 0.481179
v -4.881875 -1.502121 1.246299
v -4.881875 1.932739 -0.030831
v -5.224022 -0.414063 -1.041736
v -5.449509 2.441147 -0.878986
v -5.224022 0.401901 1.128445
v -2.990584 0.802261 -0.792478
v -2.990584 1.143860 0.126213
v -2.990584 -1.143967 -0.068851
v -5.449509 -2.441132 0.936312
v -2.990584 -0.802353 0.849839
v -0.185045 -0.000061 0.028681
v -2.597077 -1.520523 0.594011
v -5.876156 -0.000061 0.028681
v -2.597077 1.520432 -0.536650
v -3.271979 -0.342789 -0.893152
v -3.271979 0.342697 0.950514
v -0.821832 -0.626236 0.758687
v 0.821832 -0.626236 0.758687
v -0.821832 0.937103 0.251202
v 0.821832 0.937103 0.251202
v -0.821832 0.547928 -0.947678
v 0.821832 0.547928 -0.947678
v -0.821832 -1.015457 -0.440181
v 0.821832 -1.015457 -0.440181
v -1.109465 1.016113 -0.437051
v 1.109465 -0.301849 -0.903738
v 0.000000 -1.357117 -0.561177
v -1.109465 -0.301849 -0.903738
v 1.109465 -1.094437 0.248059
v -1.109465 -1.094437 0.248059
v 0.000000 -0.831726 1.057309
v 1.109465 0.223526 0.714747
v 0.000000 1.278809 0.372187
v -1.109465 0.223526 0.714747
v 1.109465 1.016113 -0.437051
v 0.000000 0.753387 -1.246299
v 0.000000 0.311111 0.984493
v 0.000000 1.367859 -0.551241
v 0.000000 -0.389450 -1.173484
v 0.000000 -1.446167 0.362250
v 1.479283 -0.039169 -0.094489
v -1.479283 -0.039169 -0.094489
v 0.871749 -0.168274 -0.423818
v 4.881887 -1.932785 0.088192
v 4.881875 1.502136 -1.188961
v 0.871749 0.168198 0.481179
v 4.881875 -1.502121 1.246299
v 4.881875 1.932739 -0.030831
v 5.224022 -0.414063 -1.041736
v 5.449509 2.441147 -0.878986
v 5.224022 0.401901 1.128445
v 2.990584 0.802261 -0.792478
v 2.990584 1.143860 0.126213
v 2.990584 -1.143967 -0.068851
v 5.449509 -2.441132 0.936312
v 2.990584 -0.802353 0.849839
v 0.185045 -0.000061 0.028681
v 2.597077 -1.520523 0.594011
v 5.876156 -0.000061 0.028681
v 2.597077 1.520432 -0.536650
v 3.271979 -0.342789 -0.893152
v 3.271979 0.342697 0.950514
vt 0.195056 0.629287
vt 0.208579 0.629931
vt 0.165910 0.659679
vt 0.158657 0.647072
vt 0.113453 0.672426
vt 0.124626 0.656944
vt 0.364268 0.822935
vt 0.376452 0.805777
vt 0.424165 0.824731
vt 0.438106 0.848592
vt 0.306927 0.774105
vt 0.326500 0.775061
vt 0.101294 0.624846
vt 0.122054 0.626066
vt 0.117911 0.578605
vt 0.127570 0.595072
vt 0.462483 0.781673
vt 0.432083 0.780342
vt 0.428520 0.735078
vt 0.444715 0.712681
vt 0.168921 0.596271
vt 0.160504 0.608131
vt 0.368735 0.731068
vt 0.379199 0.749323
vt 0.153981 0.627333
vt 0.385936 0.777945
vt 0.272038 0.794792
vt 0.251527 0.799676
vt 0.251518 0.774284
vt 0.276914 0.774276
vt 0.231011 0.794796
vt 0.226122 0.774289
vt 0.231011 0.753773
vt 0.251518 0.748884
vt 0.272025 0.753764
vt 0.251518 0.728184
vt 0.284841 0.740953
vt 0.218200 0.740961
vt 0.253263 0.598007
vt 0.276287 0.606834
vt 0.267435 0.615682
vt 0.253263 0.612308
vt 0.230243 0.606834
vt 0.239091 0.615686
vt 0.253263 0.629854
vt 0.235716 0.629858
vt 0.270810 0.629854
vt 0.267439 0.644026
vt 0.253267 0.647397
vt 0.239095 0.644031
vt 0.253272 0.661697
vt 0.230247 0.652879
vt 0.276287 0.652874
vt 0.251531 0.820376
vt 0.218208 0.807611
vt 0.284849 0.807603
vt 0.205422 0.774289
vt 0.285110 0.629854
vt 0.221416 0.629863
vt 0.297614 0.774276
vt 0.313919 0.629914
vt 0.350309 0.647721
vt 0.343053 0.660323
vt 0.300395 0.630545
vt 0.384332 0.657614
vt 0.395496 0.673100
vt 0.138069 0.822641
vt 0.064230 0.848276
vt 0.078176 0.824420
vt 0.125893 0.805487
vt 0.195435 0.773845
vt 0.175867 0.774788
vt 0.386921 0.626736
vt 0.407680 0.625528
vt 0.381426 0.595738
vt 0.391106 0.579275
vt 0.039875 0.781340
vt 0.057682 0.712357
vt 0.073867 0.734767
vt 0.070275 0.780027
vt 0.348479 0.608775
vt 0.340075 0.596911
vt 0.133649 0.730778
vt 0.123180 0.749029
vt 0.354989 0.627981
vt 0.116427 0.777646
vn 0.393919 -0.320331 -0.861519
vn 1.000000 0.000000 0.000000
vn 0.444217 -0.839756 0.312219
vn 0.223436 -0.739863 -0.634570
vn 0.223436 -0.739863 -0.634570
vn 0.444217 -0.839756 0.312219
vn -0.651074 -0.711081 0.265454
vn -0.200065 -0.717180 -0.667553
vn 0.444217 -0.839756 0.312219
vn 0.225437 -0.147056 0.963095
vn -0.202210 -0.109758 0.973172
vn -0.651074 -0.711081 0.265454
vn 1.000000 0.000000 0.000000
vn 0.393919 0.320331 0.861519
vn 0.225437 -0.147056 0.963095
vn 0.444217 -0.839756 0.312219
vn -0.200065 -0.717180 -0.667553
vn -0.651074 -0.711081 0.265454
vn -0.999999 0.001404 -0.000122
vn -0.322150 -0.331398 -0.886789
vn -0.322150 -0.331398 -0.886789
vn -0.999999 0.001404 -0.000122
vn -0.652862 0.709666 -0.264850
vn -0.201647 0.104471 -0.973871
vn -0.999999 0.001404 -0.000122
vn -0.320538 0.329390 0.888120
vn -0.202960 0.718081 0.665708
vn -0.652862 0.709666 -0.264850
vn -0.651074 -0.711081 0.265454
vn -0.202210 -0.109758 0.973172
vn -0.320538 0.329390 0.888120
vn -0.999999 0.001404 -0.000122
vn -0.201647 0.104471 -0.973871
vn -0.652862 0.709666 -0.264850
vn 0.444217 0.839756 -0.312219
vn 0.222162 0.144059 -0.964309
vn 0.222162 0.144059 -0.964309
vn 0.444217 0.839756 -0.312219
vn 1.000000 0.000000 0.000000
vn 0.393919 -0.320331 -0.861519
vn 0.444217 0.839756 -0.312219
vn 0.224880 0.740292 0.633559
vn 0.393919 0.320331 0.861519
vn 1.000000 0.000000 0.000000
vn -0.652862 0.709666 -0.264850
vn -0.202960 0.718081 0.665708
vn 0.224880 0.740292 0.633559
vn 0.444217 0.839756 -0.312219
vn 0.393919 -0.320331 -0.861519
vn 0.156026 -0.343369 -0.926150
vn 0.222162 0.144059 -0.964309
vn -0.201647 0.104471 -0.973871
vn 0.222162 0.144059 -0.964309
vn 0.156026 -0.343369 -0.926150
vn -0.322150 -0.331398 -0.886789
vn -0.200065 -0.717180 -0.667553
vn -0.322150 -0.331398 -0.886789
vn 0.156026 -0.343369 -0.926150
vn 0.223436 -0.739863 -0.634570
vn 0.393919 0.320331 0.861519
vn 0.161524 0.344321 0.924853
vn 0.225437 -0.147056 0.963095
vn -0.202210 -0.109758 0.973172
vn 0.225437 -0.147056 0.963095
vn 0.161524 0.344321 0.924853
vn -0.320538 0.329390 0.888120
vn -0.202960 0.718081 0.665708
vn -0.320538 0.329390 0.888120
vn 0.161524 0.344321 0.924853
vn 0.224880 0.740292 0.633559
vn 0.393919 0.320331 0.861519
vn 0.224880 0.740292 0.633559
vn 0.161524 0.344321 0.924853
vn 0.393919 -0.320331 -0.861519
vn 0.223436 -0.739863 -0.634570
vn 0.156026 -0.343369 -0.926150
vn -0.515754 -0.279333 0.809920
vn 0.000000 -0.355408 0.934711
vn 0.000000 0.308683 0.951165
vn -0.626663 0.240629 0.741210
vn 0.000000 -0.355408 0.934711
vn 0.515754 -0.279333 0.809920
vn 0.626667 0.240601 0.741215
vn 0.000000 0.308683 0.951165
vn 0.000000 0.308683 0.951165
vn 0.626667 0.240601 0.741215
vn 0.515784 0.701824 0.491334
vn 0.000000 0.836656 0.547729
vn -0.626663 0.240629 0.741210
vn 0.000000 0.308683 0.951165
vn 0.000000 0.836656 0.547729
vn -0.515784 0.701824 0.491334
vn -0.515784 0.701824 0.491334
vn 0.000000 0.836656 0.547729
vn 0.000000 0.951153 -0.308719
vn -0.707117 0.672566 -0.218268
vn 0.000000 0.836656 0.547729
vn 0.515784 0.701824 0.491334
vn 0.707117 0.672566 -0.218268
vn 0.000000 0.951153 -0.308719
vn 0.000000 0.951153 -0.308719
vn 0.707117 0.672566 -0.218268
vn 0.515754 0.279333 -0.809920
vn 0.000000 0.355408 -0.934711
vn -0.707117 0.672566 -0.218268
vn 0.000000 0.951153 -0.308719
vn 0.000000 0.355408 -0.934711
vn -0.515754 0.279333 -0.809920
vn -0.515754 0.279333 -0.809920
vn 0.000000 0.355408 -0.934711
vn 0.000000 -0.308683 -0.951165
vn -0.626667 -0.240601 -0.741215
vn 0.000000 0.355408 -0.934711
vn 0.515754 0.279333 -0.809920
vn 0.626667 -0.240601 -0.741215
vn 0.000000 -0.308683 -0.951165
vn 0.000000 -0.308683 -0.951165
vn 0.626667 -0.240601 -0.741215
vn 0.515784 -0.701824 -0.491334
vn 0.000000 -0.836656 -0.547729
vn -0.626667 -0.240601 -0.741215
vn 0.000000 -0.308683 -0.951165
vn 0.000000 -0.836656 -0.547729
vn -0.515784 -0.701824 -0.491334
vn -0.515784 -0.701824 -0.491334
vn 0.000000 -0.836656 -0.547729
vn 0.000000 -0.951153 0.308719
vn -0.707117 -0.672566 0.218268
vn 0.000000 -0.836656 -0.547729
vn 0.515784 -0.701824 -0.491334
vn 0.707117 -0.672566 0.218268
vn 0.000000 -0.951153 0.308719
vn 0.000000 -0.951153 0.308719
vn 0.707117 -0.672566 0.218268
vn 0.515754 -0.279333 0.809920
vn 0.000000 -0.355408 0.934711
vn -0.707117 -0.672566 0.218268
vn 0.000000 -0.951153 0.308719
vn 0.000000 -0.355408 0.934711
vn -0.515754 -0.279333 0.809920
vn 0.515754 -0.279333 0.809920
vn 0.707117 -0.672566 0.218268
vn 1.000000 0.000000 0.000000
vn 0.626667 0.240601 0.741215
vn 0.707117 -0.672566 0.218268
vn 0.515784 -0.701824 -0.491334
vn 0.626667 -0.240601 -0.741215
vn 1.000000 0.000000 0.000000
vn 1.000000 0.000000 0.000000
vn 0.626667 -0.240601 -0.741215
vn 0.515754 0.279333 -0.809920
vn 0.707117 0.672566 -0.218268
vn 0.626667 0.240601 0.741215
vn 1.000000 0.000000 0.000000
vn 0.707117 0.672566 -0.218268
vn 0.515784 0.701824 0.491334
vn -0.515784 -0.701824 -0.491334
vn -0.707117 -0.672566 0.218268
vn -1.000000 0.000000 0.000000
vn -0.626667 -0.240601 -0.741215
vn -0.707117 -0.672566 0.218268
vn -0.515754 -0.279333 0.809920
vn -0.626663 0.240629 0.741210
vn -1.000000 0.000000 0.000000
vn -1.000000 0.000000 0.000000
vn -0.626663 0.240629 0.741210
vn -0.515784 0.701824 0.491334
vn -0.707117 0.672566 -0.218268
vn -0.626667 -0.240601 -0.741215
vn -1.000000 0.000000 0.000000
vn -0.707117 0.672566 -0.218268
vn -0.515754 0.279333 -0.809920
vn -0.393919 -0.320331 -0.861519
vn -0.223436 -0.739863 -0.634570
vn -0.444213 -0.839748 0.312246
vn -1.000000 0.000000 0.000000
vn -0.223436 -0.739863 -0.634570
vn 0.200069 -0.717194 -0.667536
vn 0.651074 -0.711081 0.265454
vn -0.444213 -0.839748 0.312246
vn -0.444213 -0.839748 0.312246
vn 0.651074 -0.711081 0.265454
vn 0.202210 -0.109758 0.973172
vn -0.225408 -0.147057 0.963102
vn -1.000000 0.000000 0.000000
vn -0.444213 -0.839748 0.312246
vn -0.225408 -0.147057 0.963102
vn -0.393919 0.320331 0.861519
vn 0.200069 -0.717194 -0.667536
vn 0.322150 -0.331398 -0.886789
vn 0.999999 0.001404 -0.000122
vn 0.651074 -0.711081 0.265454
vn 0.322150 -0.331398 -0.886789
vn 0.201647 0.104471 -0.973871
vn 0.652862 0.709666 -0.264850
vn 0.999999 0.001404 -0.000122
vn 0.999999 0.001404 -0.000122
vn 0.652862 0.709666 -0.264850
vn 0.202960 0.718081 0.665708
vn 0.320538 0.329390 0.888120
vn 0.651074 -0.711081 0.265454
vn 0.999999 0.001404 -0.000122
vn 0.320538 0.329390 0.888120
vn 0.202210 -0.109758 0.973172
vn 0.201647 0.104471 -0.973871
vn -0.222162 0.144059 -0.964309
vn -0.444217 0.839756 -0.312219
vn 0.652862 0.709666 -0.264850
vn -0.222162 0.144059 -0.964309
vn -0.393919 -0.320331 -0.861519
vn -1.000000 0.000000 0.000000
vn -0.444217 0.839756 -0.312219
vn -0.444217 0.839756 -0.312219
vn -1.000000 0.000000 0.000000
vn -0.393919 0.320331 0.861519
vn -0.224880 0.740292 0.633559
vn 0.652862 0.709666 -0.264850
vn -0.444217 0.839756 -0.312219
vn -0.224880 0.740292 0.633559
vn 0.202960 0.718081 0.665708
vn -0.393919 -0.320331 -0.861519
vn -0.222162 0.144059 -0.964309
vn -0.156026 -0.343369 -0.926150
vn 0.201647 0.104471 -0.973871
vn 0.322150 -0.331398 -0.886789
vn -0.156026 -0.343369 -0.926150
vn -0.222162 0.144059 -0.964309
vn 0.200069 -0.717194 -0.667536
vn -0.223436 -0.739863 -0.634570
vn -0.156026 -0.343369 -0.926150
vn 0.322150 -0.331398 -0.886789
vn -0.393919 0.320331 0.861519
vn -0.225408 -0.147057 0.963102
vn -0.161524 0.344321 0.924853
vn 0.202210 -0.109758 0.973172
vn 0.320538 0.329390 0.888120
vn -0.161524 0.344321 0.924853
vn -0.225408 -0.147057 0.963102
vn 0.202960 0.718081 0.665708
vn -0.224880 0.740292 0.633559
vn -0.161524 0.344321 0.924853
vn 0.320538 0.329390 0.888120
vn -0.393919 0.320331 0.861519
vn -0.161524 0.344321 0.924853
vn -0.224880 0.740292 0.633559
vn -0.393919 -0.320331 -0.861519
vn -0.156026 -0.343369 -0.926150
vn -0.223436 -0.739863 -0.634570
s off
g Tie1
usemtl lambert2SG
f 1/1/1 15/2/2 16/3/3 12/4/4
f 12/4/5 16/3/6 13/5/7 2/6/8
f 16/7/9 14/8/10 5/9/11 13/10/12
f 15/11/13 4/12/14 14/8/15 16/7/16
f 2/6/17 13/5/18 17/13/19 7/14/20
f 7/14/21 17/13/22 8/15/23 3/16/24
f 17/17/25 9/18/26 6/19/27 8/20/28
f 13/10/29 5/9/30 9/18/31 17/17/32
f 3/16/33 8/15/34 18/21/35 10/22/36
f 10/22/37 18/21/38 15/2/39 1/1/40
f 18/23/41 11/24/42 4/12/43 15/11/44
f 8/20/45 6/19/46 11/24/47 18/23/48
f 1/1/49 19/25/50 10/22/51
f 3/16/52 10/22/53 19/25/54 7/14/55
f 2/6/56 7/14/57 19/25/58 12/4/59
f 4/12/60 20/26/61 14/8/62
f 5/9/63 14/8/64 20/26/65 9/18/66
f 6/19/67 9/18/68 20/26/69 11/24/70
f 4/12/71 11/24/72 20/26/73
f 1/1/74 12/4/75 19/25/76
f 21/27/77 35/28/78 41/29/79 38/30/80
f 35/28/81 22/31/82 36/32/83 41/29/84
f 41/29/85 36/32/86 24/33/87 37/34/88
f 38/30/89 41/29/90 37/34/91 23/35/92
f 23/35/93 37/34/94 42/36/95 29/37/96
f 37/34/97 24/33/98 39/38/99 42/36/100
f 42/39/101 39/40/102 26/41/103 40/42/104
f 29/43/105 42/39/106 40/42/107 25/44/108
f 25/44/109 40/42/110 43/45/111 32/46/112
f 40/42/113 26/41/114 30/47/115 43/45/116
f 43/45/117 30/47/118 28/48/119 31/49/120
f 32/46/121 43/45/122 31/49/123 27/50/124
f 27/50/125 31/49/126 44/51/127 34/52/128
f 31/49/129 28/48/130 33/53/131 44/51/132
f 44/54/133 33/55/134 22/31/135 35/28/136
f 34/56/137 44/54/138 35/28/139 21/27/140
f 22/31/141 33/55/142 45/57/143 36/32/144
f 33/53/145 28/48/146 30/47/147 45/58/148
f 45/58/149 30/47/150 26/41/151 39/40/152
f 36/32/153 45/57/154 39/38/155 24/33/156
f 27/50/157 34/52/158 46/59/159 32/46/160
f 34/56/161 21/27/162 38/30/163 46/60/164
f 46/60/165 38/30/166 23/35/167 29/37/168
f 32/46/169 46/59/170 29/43/171 25/44/172
f 47/61/173 58/62/174 62/63/175 61/64/176
f 58/62/177 48/65/178 59/66/179 62/63/180
f 62/67/181 59/68/182 51/69/183 60/70/184
f 61/71/185 62/67/186 60/70/187 50/72/188
f 48/65/189 53/73/190 63/74/191 59/66/192
f 53/73/193 49/75/194 54/76/195 63/74/196
f 63/77/197 54/78/198 52/79/199 55/80/200
f 59/68/201 63/77/202 55/80/203 51/69/204
f 49/75/205 56/81/206 64/82/207 54/76/208
f 56/81/209 47/61/210 61/64/211 64/82/212
f 64/83/213 61/71/214 50/72/215 57/84/216
f 54/78/217 64/83/218 57/84/219 52/79/220
f 47/61/221 56/81/222 65/85/223
f 49/75/224 53/73/225 65/85/226 56/81/227
f 48/65/228 58/62/229 65/85/230 53/73/231
f 50/72/232 60/70/233 66/86/234
f 51/69/235 55/80/236 66/86/237 60/70/238
f 52/79/239 57/84/240 66/86/241 55/80/242
f 50/72/243 66/86/244 57/84/245
f 47/61/246 65/85/247 58/62/248
